<svg width="25" height="26" viewBox="0 0 25 26" fill="none" xmlns="http://www.w3.org/2000/svg">
<path d="M12.5 7.31628V25" stroke="#237440" stroke-width="2" stroke-linecap="round" stroke-linejoin="round"/>
<path d="M22.7222 12.3688V22.4738C22.7222 23.1438 22.453 23.7863 21.9737 24.2601C21.4945 24.7339 20.8444 25 20.1667 25H4.83333C4.15555 25 3.50554 24.7339 3.02628 24.2601C2.54702 23.7863 2.27777 23.1438 2.27777 22.4738V12.3688" stroke="#237440" stroke-width="2" stroke-linecap="round" stroke-linejoin="round"/>
<path d="M6.74999 7.31617C5.90277 7.31617 5.09025 6.98347 4.49117 6.39127C3.8921 5.79907 3.55554 4.99586 3.55554 4.15836C3.55554 3.32086 3.8921 2.51766 4.49117 1.92545C5.09025 1.33325 5.90277 1.00055 6.74999 1.00055C7.98264 0.979322 9.19057 1.57055 10.2163 2.69713C11.2419 3.82371 12.0378 5.43336 12.5 7.31617C12.9622 5.43336 13.758 3.82371 14.7837 2.69713C15.8094 1.57055 17.0173 0.979322 18.25 1.00055C19.0972 1.00055 19.9097 1.33325 20.5088 1.92545C21.1079 2.51766 21.4444 3.32086 21.4444 4.15836C21.4444 4.99586 21.1079 5.79907 20.5088 6.39127C19.9097 6.98347 19.0972 7.31617 18.25 7.31617" stroke="#237440" stroke-width="2" stroke-linecap="round" stroke-linejoin="round"/>
<path d="M22.7222 7.31622H2.27778C1.57208 7.31622 1 7.88174 1 8.57935V11.1056C1 11.8032 1.57208 12.3687 2.27778 12.3687H22.7222C23.4279 12.3687 24 11.8032 24 11.1056V8.57935C24 7.88174 23.4279 7.31622 22.7222 7.31622Z" stroke="#237440" stroke-width="2" stroke-linecap="round" stroke-linejoin="round"/>
</svg>
